<?xml version="1.0" encoding="UTF-8"?>
<!DOCTYPE svg PUBLIC "-//W3C//DTD SVG 1.1//EN" "http://www.w3.org/Graphics/SVG/1.1/DTD/svg11.dtd">
<!-- Creator: CorelDRAW -->
<svg xmlns="http://www.w3.org/2000/svg" xml:space="preserve" width="24px" height="24px" style="shape-rendering:geometricPrecision; text-rendering:geometricPrecision; image-rendering:optimizeQuality; fill-rule:evenodd; clip-rule:evenodd"
viewBox="0 0 1.22293 1.22293"
 xmlns:xlink="http://www.w3.org/1999/xlink">
 <defs>
  <style type="text/css">
   <![CDATA[
    .str1 {stroke:black;stroke-width:0.0898803}
    .str2 {stroke:black;stroke-width:0.0898803;stroke-linecap:round;stroke-linejoin:round}
    .str0 {stroke:black;stroke-width:0.000107006}
    .fil0 {fill:none}
    .fil2 {fill:black}
    .fil1 {fill:black;fill-rule:nonzero}
   ]]>
  </style>
   <clipPath id="id0">
    <path d="M-0 0l1.22293 0 0 1.22293 -1.22293 0 0 -1.22293z"/>
   </clipPath>
 </defs>
<symbol id="Fm0-19459-0" viewBox="-12.8453 -7.00593 0.323567 0.000101911">
 <line class="fil0 str0" x1="-12.8453" y1="-7.00588" x2="-12.5217" y2= "-7.00588" />
</symbol>
<symbol id="Symbol1" viewBox="-12.8453 -7.00593 0.323567 0.000101911">
 <line class="fil0 str0" x1="-12.8453" y1="-7.00588" x2="-12.5217" y2= "-7.00588" />
</symbol>
 <g id="Ebene_x0020_1">
  <metadata id="CorelCorpID_0Corel-Layer"/>
  <g>
  </g>
  <g style="clip-path:url(#id0)">
   <g>
    <g id="_182695584">
     <path id="_179087936" class="fil0 str1" d="M0.176841 0.172606l0.870176 0c0.0692382,0 0.125885,0.0567083 0.125885,0.125885l0 0.133646 -1.12195 0 0 -0.133646c0,-0.0692382 0.0566471,-0.125885 0.125885,-0.125885z"/>
     <line id="_179087312" class="fil0 str2" x1="0.277982" y1="0.0407643" x2="0.277982" y2= "0.298492" />
     <line id="_179087264" class="fil0 str2" x1="0.945875" y1="0.0407643" x2="0.945875" y2= "0.298492" />
     <path id="_179527272" class="fil1" d="M0.379332 1.00739l0 -0.291501c-0.0544866,0.0416713 -0.0911796,0.0624561 -0.110074,0.0624561 -0.00900892,0 -0.0170242,-0.00361274 -0.023949,-0.010721 -0.00702675,-0.00722038 -0.0104357,-0.0154242 -0.0104357,-0.0248306 0,-0.010935 0.00340892,-0.0189197 0.0102166,-0.0240611 0.00691975,-0.0051414 0.0190064,-0.0117045 0.0363618,-0.0197962 0.0260331,-0.0122548 0.0467975,-0.0250497 0.0622879,-0.0385019 0.0155975,-0.0134573 0.0293299,-0.0285503 0.0414166,-0.0451771 0.0119694,-0.0166268 0.0197758,-0.0269096 0.0235057,-0.0307363 0.00362803,-0.00382675 0.0104408,-0.00579873 0.0205503,-0.00579873 0.0114191,0 0.0205401,0.00437707 0.0273529,0.0131261 0.00691975,0.00875414 0.0103236,0.0208917 0.0103236,0.0362089l0 0.366864c0,0.042986 -0.014721,0.0644229 -0.0440561,0.0644229 -0.0131771,0 -0.0236178,-0.00437707 -0.0316382,-0.0131261 -0.00790318,-0.00874904 -0.0118624,-0.0216561 -0.0118624,-0.038828z"/>
     <path id="_1795272721" class="fil1" d="M0.615083 0.586054l0.214436 0c0.0205452,0 0.0354803,0.00316943 0.0447134,0.00962548 0.00922803,0.00634395 0.0138395,0.0169529 0.0138395,0.0317197 0,0.00896815 -0.00538599,0.0207796 -0.0162599,0.0355465 -0.0108739,0.0147669 -0.0231745,0.0310675 -0.0370191,0.0488968 -0.0138395,0.0178242 -0.0281223,0.0400306 -0.0428382,0.0665019 -0.014614,0.0264713 -0.0281274,0.0588484 -0.0403261,0.0970191 -0.00515669,0.0169529 -0.00878471,0.0309554 -0.0109809,0.0420025 -0.00208917,0.0111592 -0.00450446,0.0255949 -0.00703185,0.0433172 -0.00263439,0.0177172 -0.00483057,0.0312815 -0.00681274,0.0406879 -0.00449936,0.0217682 -0.0108739,0.0368611 -0.0191134,0.0452841 -0.00823949,0.00842293 -0.0193325,0.0126879 -0.033065,0.0126879 -0.0130752,0 -0.0235108,-0.00459618 -0.0315312,-0.0136713 -0.00790318,-0.00908025 -0.0118624,-0.0224255 -0.0118624,-0.0401427 0,-0.0136764 0.0028586,-0.0322701 0.0086828,-0.055786 0.00581911,-0.0235159 0.0152662,-0.051628 0.0283414,-0.0844433 0.0130701,-0.0328102 0.029442,-0.0665019 0.0491006,-0.100958 0.0195567,-0.0344561 0.0429554,-0.0688 0.0699822,-0.103037l-0.172255 0c-0.0180178,0 -0.0314191,-0.00328153 -0.0403159,-0.00973248 -0.00890191,-0.00656306 -0.0134064,-0.0167389 -0.0134064,-0.0306293 0,-0.0147669 0.00472357,-0.0241732 0.0141707,-0.0284382 0.00945223,-0.00426497 0.0226293,-0.00645096 0.0395516,-0.00645096z"/>
     <polygon id="_182700600" class="fil2 str2" points="1.1729,0.927577 0.808581,1.17968 0.922293,0.957962 "/>
     <path id="_182698680" class="fil0 str1" d="M1.1729 0.927577l0 -0.629085c0,-0.0692382 -0.0566522,-0.125885 -0.125885,-0.125885l-0.870176 0c-0.0692382,0 -0.125885,0.0566471 -0.125885,0.125885l0 0.755302c0,0.0692331 0.0566471,0.125885 0.125885,0.125885l0.63174 0"/>
    </g>
   </g>
  </g>
  <polygon class="fil0" points="-0,0 1.22293,0 1.22293,1.22293 -0,1.22293 "/>
 </g>
</svg>
